<svg width="33" height="33" fill="none" xmlns="http://www.w3.org/2000/svg"><path d="M18.742 2.227A1.05 1.05 0 0 0 17.258.742l-2.97 2.97a3.15 3.15 0 0 0 0 4.455l.313.312-6.742 2.405a5.25 5.25 0 0 0-3.314 3.62L.914 28.42a2.883 2.883 0 0 0 3.517 3.516l13.914-3.63a5.25 5.25 0 0 0 3.618-3.315l2.407-6.74.312.312a3.15 3.15 0 0 0 4.455 0l2.97-2.97a1.05 1.05 0 0 0-1.485-1.485l-2.97 2.97a1.05 1.05 0 0 1-1.485 0L15.773 6.682a1.05 1.05 0 0 1 0-1.485l2.97-2.97Zm3.986 14.38-2.743 7.679a3.149 3.149 0 0 1-2.17 1.987L4.618 29.715l8.383-8.383a2.1 2.1 0 1 0-1.485-1.485L3.134 28.23l3.441-13.194a3.15 3.15 0 0 1 1.987-2.17l7.68-2.745 6.486 6.486Z" fill="#fff"/></svg>