<svg width="20" height="21" fill="none" xmlns="http://www.w3.org/2000/svg"><path d="M17.857.438H2.143A2.15 2.15 0 0 0 0 2.594v15.812c0 1.19.96 2.157 2.143 2.157h15.714A2.15 2.15 0 0 0 20 18.405V2.594A2.15 2.15 0 0 0 17.857.438ZM15.674 7.57c.009.126.009.256.009.382 0 3.895-2.946 8.382-8.33 8.382a8.26 8.26 0 0 1-4.496-1.32c.237.027.464.036.705.036a5.85 5.85 0 0 0 3.634-1.258 2.934 2.934 0 0 1-2.736-2.044c.45.067.857.067 1.321-.054a2.942 2.942 0 0 1-2.343-2.893v-.036c.388.22.843.355 1.32.373a2.955 2.955 0 0 1-1.304-2.453 2.93 2.93 0 0 1 .399-1.487A8.297 8.297 0 0 0 9.888 8.28c-.415-2 1.072-3.62 2.857-3.62a2.91 2.91 0 0 1 2.139.929 5.716 5.716 0 0 0 1.857-.71 2.936 2.936 0 0 1-1.286 1.622 5.8 5.8 0 0 0 1.688-.458 6.186 6.186 0 0 1-1.469 1.527Z" fill="#000"/></svg>